<svg width="18" height="18" viewBox="0 0 18 18" fill="none" xmlns="http://www.w3.org/2000/svg">
<path d="M14.625 1.6875H5.0625C4.46633 1.68935 3.89511 1.927 3.47356 2.34856C3.052 2.77011 2.81435 3.34133 2.8125 3.9375V15.75C2.8125 15.8992 2.87176 16.0423 2.97725 16.1477C3.08274 16.2532 3.22582 16.3125 3.375 16.3125H13.5C13.6492 16.3125 13.7923 16.2532 13.8977 16.1477C14.0032 16.0423 14.0625 15.8992 14.0625 15.75C14.0625 15.6008 14.0032 15.4577 13.8977 15.3523C13.7923 15.2468 13.6492 15.1875 13.5 15.1875H3.9375C3.9375 14.8891 4.05603 14.603 4.267 14.392C4.47798 14.181 4.76413 14.0625 5.0625 14.0625H14.625C14.7742 14.0625 14.9173 14.0032 15.0227 13.8977C15.1282 13.7923 15.1875 13.6492 15.1875 13.5V2.25C15.1875 2.10082 15.1282 1.95774 15.0227 1.85225C14.9173 1.74676 14.7742 1.6875 14.625 1.6875ZM12.9375 8.4375L11.1375 7.0875C11.0893 7.04987 11.0299 7.02943 10.9688 7.02943C10.9076 7.02943 10.8482 7.04987 10.8 7.0875L9 8.4375V2.8125H12.9375V8.4375Z" fill="#FFE873"/>
</svg>
