<svg width="18" height="18" viewBox="0 0 18 18" fill="none" xmlns="http://www.w3.org/2000/svg">
<path d="M15.1875 7.3125H7.08754L14.9133 5.21719C14.9845 5.19735 15.0511 5.1635 15.109 5.11762C15.167 5.07174 15.2152 5.01475 15.2508 4.95C15.289 4.88745 15.3137 4.81763 15.3234 4.74499C15.3331 4.67235 15.3275 4.59849 15.3071 4.52812L14.7235 2.35547C14.6868 2.2126 14.622 2.07847 14.5329 1.96091C14.4438 1.84335 14.3321 1.74471 14.2045 1.67075C14.0769 1.59679 13.9358 1.54899 13.7895 1.53013C13.6432 1.51128 13.4946 1.52175 13.3524 1.56094L2.48207 4.47187C2.33893 4.50938 2.20466 4.57493 2.08704 4.66472C1.96943 4.75451 1.8708 4.86676 1.7969 4.99495C1.72299 5.12314 1.67527 5.26473 1.65649 5.41151C1.63772 5.55829 1.64827 5.70733 1.68754 5.85L2.25004 7.95234V14.0625C2.25004 14.3609 2.36857 14.647 2.57955 14.858C2.79052 15.069 3.07667 15.1875 3.37504 15.1875H14.625C14.9234 15.1875 15.2096 15.069 15.4205 14.858C15.6315 14.647 15.75 14.3609 15.75 14.0625V7.875C15.75 7.72582 15.6908 7.58274 15.5853 7.47725C15.4798 7.37176 15.3367 7.3125 15.1875 7.3125ZM11.9039 4.85859L7.0102 6.16641L4.95004 4.97109L9.83676 3.66328L11.9039 4.85859ZM14.625 14.0625H3.37504V8.4375H14.625V14.0625Z" fill="#FFE873"/>
</svg>
