<svg width="18" height="18" viewBox="0 0 18 18" fill="none" xmlns="http://www.w3.org/2000/svg">
<path d="M9 12.375C12.1066 12.375 14.625 9.8566 14.625 6.75C14.625 3.6434 12.1066 1.125 9 1.125C5.8934 1.125 3.375 3.6434 3.375 6.75C3.375 9.8566 5.8934 12.375 9 12.375Z" fill="#FFE873"/>
<path d="M14.5689 12.3188C14.6658 12.2118 14.7179 12.0716 14.7143 11.9272C14.7108 11.7829 14.6519 11.6454 14.5498 11.5433C14.4477 11.4412 14.3102 11.3823 14.1659 11.3787C14.0215 11.3752 13.8813 11.4273 13.7743 11.5242C12.5081 12.7904 10.7908 13.5018 9.00011 13.5018C7.20943 13.5018 5.49209 12.7904 4.22589 11.5242C2.95969 10.258 2.24834 8.54068 2.24834 6.75C2.24834 4.95932 2.95969 3.24199 4.22589 1.97578C4.28236 1.92462 4.32784 1.86252 4.35958 1.79324C4.39132 1.72397 4.40865 1.64897 4.41053 1.57279C4.4124 1.49661 4.39878 1.42085 4.37049 1.3501C4.3422 1.27935 4.29983 1.21508 4.24594 1.1612C4.19206 1.10732 4.1278 1.06494 4.05704 1.03665C3.98629 1.00836 3.91053 0.99474 3.83435 0.996615C3.75818 0.998491 3.68317 1.01582 3.6139 1.04756C3.54463 1.0793 3.48252 1.12479 3.43136 1.18125C2.36411 2.24876 1.62615 3.60051 1.30537 5.07553C0.98458 6.55055 1.09448 8.08668 1.62199 9.50101C2.14949 10.9153 3.07236 12.1483 4.28071 13.053C5.48906 13.9577 6.93197 14.496 8.43761 14.6039V15.75H6.75011C6.60092 15.75 6.45785 15.8093 6.35236 15.9148C6.24687 16.0202 6.18761 16.1633 6.18761 16.3125C6.18761 16.4617 6.24687 16.6048 6.35236 16.7103C6.45785 16.8157 6.60092 16.875 6.75011 16.875H11.2501C11.3993 16.875 11.5424 16.8157 11.6479 16.7103C11.7533 16.6048 11.8126 16.4617 11.8126 16.3125C11.8126 16.1633 11.7533 16.0202 11.6479 15.9148C11.5424 15.8093 11.3993 15.75 11.2501 15.75H9.56261V14.6039C11.4525 14.4715 13.2307 13.6598 14.5689 12.3188Z" fill="#FFE873"/>
</svg>
