<svg width="18" height="18" viewBox="0 0 18 18" fill="none" xmlns="http://www.w3.org/2000/svg">
<path d="M14.4492 7.03828L13.2538 4.97109C13.1532 4.79469 13.0187 4.63994 12.858 4.51573C12.6974 4.39153 12.5137 4.30034 12.3177 4.2474C12.1216 4.19447 11.917 4.18084 11.7157 4.20729C11.5143 4.23375 11.3202 4.29977 11.1445 4.40156C10.8311 4.57973 10.5917 4.864 10.4695 5.20312L9.23197 3.07266C9.13135 2.89626 8.99684 2.7415 8.83617 2.6173C8.6755 2.49309 8.49185 2.4019 8.29579 2.34897C8.09973 2.29603 7.89514 2.2824 7.69379 2.30886C7.49245 2.33531 7.29832 2.40134 7.12259 2.50312C6.80922 2.68129 6.56983 2.96557 6.44759 3.30469C6.23296 2.96824 5.89711 2.72728 5.50964 2.63172C5.12218 2.53616 4.7128 2.59334 4.36634 2.79141C4.19054 2.89336 4.03666 3.0291 3.91357 3.19081C3.79047 3.35252 3.70061 3.53699 3.64916 3.73359C3.58749 3.95336 3.57786 4.18446 3.62103 4.40859C3.3464 4.42962 3.07985 4.51126 2.84056 4.64766C2.42071 4.89162 2.11466 5.29205 1.98946 5.76122C1.86426 6.2304 1.93011 6.73007 2.17259 7.15078L2.31322 7.38984C2.07197 7.41783 1.83946 7.49694 1.63119 7.62188C1.21181 7.86449 0.905898 8.26366 0.780651 8.73169C0.655404 9.19972 0.721068 9.69832 0.963219 10.118L3.56478 14.625C4.12069 15.5895 4.95027 16.3673 5.94851 16.86C6.94674 17.3528 8.06872 17.5382 9.17241 17.3929C10.2761 17.2476 11.3119 16.7781 12.1486 16.0438C12.9852 15.3095 13.5852 14.3435 13.8726 13.268L13.8937 13.1766C14.6041 12.3336 15.0384 11.2928 15.1378 10.1949C15.2371 9.09697 14.9967 7.99505 14.4492 7.03828ZM12.7828 12.9797C12.632 13.5507 12.369 14.086 12.0093 14.5544C11.6496 15.0227 11.2002 15.4148 10.6874 15.7078C9.65424 16.3041 8.42654 16.4658 7.27419 16.1573C6.12185 15.8487 5.13916 15.0953 4.54212 14.0625L1.94056 9.55547C1.87055 9.43526 1.83777 9.29699 1.84636 9.15814C1.85496 9.0193 1.90455 8.88612 1.98886 8.77547C2.07316 8.66481 2.1884 8.58166 2.31998 8.53651C2.45157 8.49137 2.59358 8.48628 2.72806 8.52187C2.90838 8.57243 3.0621 8.69088 3.15697 8.85234L4.84447 11.7773C4.89472 11.8616 4.96565 11.9317 5.05055 11.9809C5.13545 12.0301 5.23151 12.0569 5.32963 12.0586C5.4282 12.0582 5.52495 12.032 5.61018 11.9825C5.69542 11.933 5.76614 11.8619 5.81528 11.7765C5.86441 11.691 5.89023 11.5942 5.89014 11.4956C5.89006 11.397 5.86407 11.3002 5.81478 11.2148L3.14291 6.58828C3.04967 6.42604 3.02469 6.23341 3.07348 6.05276C3.12227 5.87211 3.24082 5.71824 3.40306 5.625C3.5653 5.53176 3.75793 5.50679 3.93858 5.55558C4.11923 5.60436 4.2731 5.72292 4.36634 5.88516L7.03822 10.5117C7.07176 10.5817 7.11941 10.6439 7.17817 10.6945C7.23693 10.7452 7.30553 10.7831 7.37965 10.806C7.45377 10.8288 7.53183 10.8361 7.6089 10.8274C7.68597 10.8186 7.7604 10.794 7.82751 10.7551C7.89462 10.7162 7.95295 10.6638 7.99885 10.6013C8.04475 10.5388 8.07722 10.4674 8.09422 10.3917C8.11122 10.3161 8.11239 10.2377 8.09764 10.1615C8.08289 10.0854 8.05255 10.0131 8.00853 9.94922L5.89916 6.29297C5.80715 6.13045 5.78286 5.93823 5.83156 5.75794C5.88025 5.57765 5.998 5.42379 6.15931 5.32969C6.32076 5.23802 6.51191 5.21393 6.69106 5.26266C6.87021 5.3114 7.02281 5.42902 7.11556 5.58984L10.0687 10.7086C10.1196 10.7939 10.1916 10.8646 10.2778 10.9139C10.3641 10.9632 10.4616 10.9893 10.5609 10.9898C10.6595 10.9874 10.7561 10.9608 10.8421 10.9125C10.9704 10.8376 11.0639 10.7149 11.1021 10.5713C11.1403 10.4277 11.1202 10.2749 11.046 10.1461L9.92103 8.19141C9.8287 8.03187 9.80341 7.84222 9.85072 7.66406C9.87321 7.57363 9.91419 7.48884 9.97106 7.41502C10.0279 7.34121 10.0995 7.27996 10.1812 7.23516C10.2594 7.18754 10.3467 7.1567 10.4375 7.1446C10.5283 7.13249 10.6206 7.13939 10.7085 7.16484C10.798 7.18729 10.8821 7.22748 10.9558 7.28304C11.0295 7.3386 11.0912 7.4084 11.1374 7.48828L12.3328 9.5625C12.6304 10.0739 12.8235 10.6393 12.9008 11.2259C12.978 11.8126 12.9379 12.4087 12.7828 12.9797ZM11.6015 1.73672L11.8898 0.646875C11.9087 0.575315 11.9415 0.508184 11.9864 0.449314C12.0313 0.390445 12.0873 0.340991 12.1513 0.303775C12.2153 0.266559 12.286 0.24231 12.3593 0.232413C12.4327 0.222516 12.5073 0.227165 12.5788 0.246094C12.6504 0.265022 12.7175 0.297861 12.7764 0.342734C12.8353 0.387606 12.8847 0.443635 12.9219 0.50762C12.9592 0.571606 12.9834 0.642295 12.9933 0.715652C13.0032 0.789008 12.9986 0.863596 12.9796 0.935156L12.6843 2.025C12.653 2.1445 12.5828 2.25017 12.4848 2.3253C12.3867 2.40044 12.2664 2.44074 12.1429 2.43984L11.9953 2.42578C11.8519 2.38631 11.7299 2.29166 11.6561 2.16253C11.5823 2.0334 11.5627 1.8803 11.6015 1.73672ZM13.4507 2.38359L14.0976 1.4625C14.184 1.34026 14.3151 1.25697 14.4625 1.23065C14.6099 1.20434 14.7617 1.23711 14.8851 1.32187C14.9458 1.36461 14.9975 1.41895 15.0371 1.48175C15.0767 1.54456 15.1035 1.61459 15.1159 1.6878C15.1284 1.76101 15.1262 1.83595 15.1095 1.90831C15.0928 1.98067 15.0619 2.049 15.0187 2.10937L14.3718 3.03047C14.3297 3.09096 14.276 3.14248 14.2138 3.18201C14.1516 3.22154 14.0822 3.24831 14.0096 3.26074C13.9369 3.27317 13.8625 3.27103 13.7907 3.25443C13.7189 3.23783 13.6512 3.20711 13.5913 3.16406C13.4696 3.07892 13.3864 2.94905 13.3601 2.80283C13.3337 2.6566 13.3663 2.50588 13.4507 2.38359ZM16.5374 3.90234L15.6163 4.54922C15.5201 4.61212 15.4079 4.64626 15.2929 4.64766C15.1742 4.64672 15.0589 4.60825 14.9634 4.53777C14.8678 4.46729 14.7971 4.36841 14.7612 4.25527C14.7253 4.14213 14.7261 4.02053 14.7635 3.90789C14.8009 3.79524 14.873 3.69731 14.9695 3.62812L15.8906 2.98125C15.9509 2.93802 16.0193 2.90716 16.0916 2.89047C16.164 2.87378 16.2389 2.87158 16.3121 2.884C16.3854 2.89642 16.4554 2.92322 16.5182 2.96284C16.581 3.00245 16.6353 3.05412 16.6781 3.11484C16.7628 3.23824 16.7956 3.39006 16.7693 3.53744C16.743 3.68482 16.6597 3.81591 16.5374 3.90234Z" fill="#FFE873"/>
</svg>
