<svg width="18" height="18" viewBox="0 0 18 18" fill="none" xmlns="http://www.w3.org/2000/svg">
<path d="M7.3125 1.125H10.6875C10.8367 1.125 10.9798 1.06574 11.0852 0.960248C11.1907 0.854758 11.25 0.711684 11.25 0.5625C11.25 0.413316 11.1907 0.270242 11.0852 0.164752C10.9798 0.0592632 10.8367 0 10.6875 0L7.3125 0C7.16332 0 7.02024 0.0592632 6.91475 0.164752C6.80926 0.270242 6.75 0.413316 6.75 0.5625C6.75 0.711684 6.80926 0.854758 6.91475 0.960248C7.02024 1.06574 7.16332 1.125 7.3125 1.125Z" fill="#FFE873"/>
<path d="M9 2.25C7.66498 2.25 6.35994 2.64588 5.2499 3.38758C4.13987 4.12928 3.27471 5.18349 2.76382 6.41689C2.25292 7.65029 2.11925 9.00749 2.3797 10.3169C2.64015 11.6262 3.28303 12.829 4.22703 13.773C5.17104 14.717 6.37377 15.3598 7.68314 15.6203C8.99252 15.8808 10.3497 15.7471 11.5831 15.2362C12.8165 14.7253 13.8707 13.8601 14.6124 12.7501C15.3541 11.6401 15.75 10.335 15.75 9C15.7463 7.21093 15.0339 5.4962 13.7689 4.23113C12.5038 2.96607 10.7891 2.25372 9 2.25ZM12.1852 6.61641L9.40078 9.40078C9.29327 9.50474 9.14956 9.56286 9 9.56286C8.85044 9.56286 8.70674 9.50474 8.59922 9.40078C8.4936 9.29413 8.43434 9.1501 8.43434 9C8.43434 8.8499 8.4936 8.70587 8.59922 8.59922L11.3836 5.81484C11.434 5.75339 11.4968 5.70318 11.5678 5.66744C11.6388 5.6317 11.7165 5.61122 11.7959 5.60732C11.8753 5.60342 11.9546 5.61618 12.0288 5.6448C12.103 5.67341 12.1703 5.71723 12.2266 5.77344C12.2828 5.82966 12.3266 5.89702 12.3552 5.97119C12.3838 6.04536 12.3966 6.1247 12.3927 6.2041C12.3888 6.2835 12.3683 6.36121 12.3326 6.43222C12.2968 6.50323 12.2466 6.56597 12.1852 6.61641Z" fill="#FFE873"/>
</svg>
