<svg width="80" height="36" viewBox="0 0 80 36" fill="none" xmlns="http://www.w3.org/2000/svg">
<g clip-path="url(#clip0_4101_937)">
<path d="M72.6537 10.8988C72.715 12.6211 73.4615 13.4628 74.7682 13.4628C75.6505 13.4628 76.6762 12.9507 77.5604 12.3545L78.0316 13.2172C77.0867 14.1866 75.2192 15.2674 73.4552 15.2674C71.5453 15.2674 70.2512 13.9346 70.2512 11.4724C70.2512 7.8017 73.1589 4.64324 76.452 4.64324C78.1756 4.64324 78.9752 5.52374 78.9752 6.7548C78.9707 9.17015 75.9739 10.4012 72.6537 10.8988ZM75.3632 6.18129C74.153 6.18129 72.9619 7.74032 72.6537 9.81151C75.1175 9.42221 76.4924 8.39627 76.4924 7.22659C76.4874 6.5448 76.0768 6.17644 75.3581 6.17644L75.3632 6.18129ZM76.1046 21.0529C77.8282 21.0529 78.6297 21.935 78.6297 23.1661C78.6297 25.5895 75.6328 26.8158 72.3063 27.3085C72.3676 29.0324 73.1141 29.8725 74.4208 29.8725C75.3032 29.8725 76.3307 29.3603 77.2131 28.7658L77.6848 29.6269C76.7413 30.5963 74.8737 31.6771 73.1078 31.6771C71.1998 31.6722 69.9069 30.3393 69.9069 27.8788C69.9069 24.2065 72.8154 21.0481 76.0996 21.0481L76.1046 21.0529ZM76.1451 23.6379C76.1451 22.9609 75.7345 22.5909 75.0139 22.5909C73.8038 22.5909 72.6133 24.15 72.3044 26.2212C74.7651 25.827 76.14 24.8011 76.14 23.633L76.1451 23.6379ZM64.7823 14.9136L62.094 15.1608L58.8095 6.275C58.4151 6.19819 58.0297 6.08126 57.6592 5.92602V4.88073H62.6885V5.90664C62.2434 6.07421 61.7829 6.19759 61.3137 6.275L63.8179 13.2495L66.3524 6.32021C65.8813 6.23783 65.2655 6.11505 64.8985 5.90987V4.88396H69.4547V5.92926C69.077 6.10333 68.676 6.22091 68.2642 6.27822L64.7823 14.9136ZM54.8545 3.14396C54.5437 3.14364 54.2399 3.05118 53.9816 2.87825C53.7233 2.70532 53.522 2.4597 53.4033 2.17243C53.2846 1.88516 53.2537 1.56914 53.3145 1.26431C53.3754 0.959482 53.5252 0.679535 53.7451 0.459853C53.965 0.240169 54.2451 0.090612 54.55 0.0300874C54.8549 -0.0304369 55.1709 0.000789454 55.4581 0.119816C55.7452 0.238843 55.9906 0.440327 56.1633 0.698804C56.336 0.957278 56.4281 1.26114 56.4281 1.57198C56.4277 1.98904 56.2617 2.38888 55.9666 2.68364C55.6715 2.97839 55.2716 3.14396 54.8545 3.14396ZM55.6203 5.64814C55.6203 5.85332 55.5799 6.16029 55.5589 6.36549L54.47 13.0525C54.5288 13.1167 54.5828 13.1853 54.6315 13.2576H56.315V14.0574C55.3666 14.5647 53.4861 15.261 52.7817 15.261C52.2081 15.261 51.9205 14.8926 51.9205 14.2771C51.9205 14.0913 51.9819 13.7439 52.0029 13.5581L53.0903 6.87114L52.9287 6.66594H51.2485V5.86625C52.192 5.3331 54.1016 4.63677 54.7575 4.63677C55.3537 4.63839 55.6203 5.02775 55.6203 5.6433V5.64814ZM45.3887 29.1713V22.8704H43.87V21.4341H45.3887L46.5794 18.7264H47.6666V21.4341H50.788V22.8704H47.6666V28.3635C47.6666 29.4314 48.1804 29.9032 49.0432 29.9032C49.692 29.8887 50.3353 29.7798 50.9528 29.5801L51.1773 30.6044C50.1918 31.0567 48.6328 31.6707 47.4421 31.6707C45.9848 31.6722 45.3887 30.7917 45.3887 29.1713ZM43.8765 12.76V6.45916H42.3562V5.0229H43.8765L45.0672 2.31515H46.1577V5.0229H49.2774V6.45916H46.1577V11.9522C46.1577 13.0185 46.6715 13.4903 47.5326 13.4903C48.1815 13.4761 48.8248 13.3672 49.4422 13.1672L49.6684 14.193C48.6829 14.6438 47.1222 15.2593 45.9315 15.2593C44.471 15.261 43.8765 14.3805 43.8765 12.76ZM40.6097 25.3957L40.1994 23.242C39.747 22.9965 38.9877 22.8123 38.0845 22.8123C36.4011 22.8123 35.2314 23.9432 35.2314 26.1146C35.2314 28.6575 36.729 29.8887 38.9667 29.8887C39.976 29.8688 40.9751 29.6816 41.9232 29.3344V30.7885C41.2463 31.1973 39.5628 31.669 38.0022 31.669C34.6369 31.669 32.9938 29.824 32.9938 26.9514C32.9938 23.5668 35.3962 21.0448 38.8229 21.0448C40.1154 21.0448 41.3481 21.4132 42.1284 21.9059C42.1096 23.0288 41.9928 24.1477 41.7795 25.2502L40.6097 25.3957ZM37.3785 15.2626C36.8454 15.2626 36.5788 14.9394 36.5788 14.3805C36.5788 13.7456 37.4609 10.2575 37.4609 10.2575H37.2347C35.6192 13.8263 34.422 15.2658 32.8629 15.2658C31.5284 15.2658 30.4201 13.8909 30.4201 11.8617C30.4201 8.08768 33.3282 4.64162 36.3736 4.64162C36.9506 4.63693 37.5228 4.74675 38.0571 4.96474C38.2178 4.6422 38.4665 4.37169 38.7744 4.18441L40.18 4.4526L38.8261 13.0686L38.9877 13.2528H40.7535V14.0735C40.0701 14.4419 38.1201 15.261 37.3801 15.261L37.3785 15.2626ZM35.6127 6.13444C33.9502 6.13444 32.8419 8.55783 32.8419 10.894C32.8419 12.411 33.2329 13.3174 33.9922 13.3174C34.5868 13.3174 36.2912 10.4869 37.6047 6.63044C37.0926 6.29923 36.1895 6.13444 35.6143 6.13444H35.6127ZM29.5526 29.4783L29.7141 29.6624H31.48V30.4832C30.8014 30.8531 28.8514 31.6722 28.113 31.6722C27.5783 31.6722 27.3052 31.3491 27.3052 30.7917C27.3052 30.1552 28.189 26.6687 28.189 26.6687H27.9628C26.3472 30.2376 25.15 31.6771 23.5894 31.6771C22.2565 31.6771 21.1466 30.3039 21.1466 28.273C21.1466 24.4989 24.0628 21.0529 27.1001 21.0529C27.677 21.0489 28.2491 21.1587 28.7835 21.376C28.9481 21.0501 29.2026 20.7781 29.517 20.5924L30.9129 20.859L29.5526 29.4783ZM26.3504 22.5457C24.688 22.5457 23.5797 24.9691 23.5797 27.3037C23.5797 28.8223 23.9691 29.727 24.7284 29.727C25.3245 29.727 27.0274 26.8965 28.3425 23.0401C27.8287 22.7089 26.932 22.5457 26.3504 22.5457ZM22.5117 10.8988C22.5732 12.6211 23.3196 13.4628 24.6266 13.4628C25.5087 13.4628 26.5347 12.9507 27.4184 12.3545L27.8901 13.2172C26.945 14.1866 25.0773 15.2674 23.3131 15.2674C21.4035 15.2674 20.1093 13.9346 20.1093 11.4724C20.1093 7.8017 23.0255 4.64324 26.3101 4.64324C28.0339 4.64324 28.8336 5.52374 28.8336 6.7548C28.8336 9.17015 25.8367 10.4012 22.5117 10.8988ZM25.2212 6.18129C24.0111 6.18129 22.8203 7.74032 22.5117 9.81151C24.9756 9.42221 26.3504 8.39627 26.3504 7.22659C26.3504 6.5448 25.9401 6.17644 25.2212 6.17644V6.18129ZM20.0512 23.6572H19.0818C18.6066 23.6491 18.1362 23.7526 17.7083 23.9594C17.2804 24.1662 16.9069 24.4705 16.618 24.848V29.9759C17.3473 30.0275 18.066 30.1792 18.7539 30.4266V31.4525H12.823V30.4056C13.3185 30.2051 13.835 30.0609 14.3627 29.9759V23.4068C13.7994 23.2947 13.2713 23.0486 12.823 22.6895V21.8817L16.0865 21.082H16.5179L16.3563 23.7073H16.4791C17.2384 21.9027 18.1626 21.103 19.5375 21.103C19.8404 21.0905 20.1423 21.1457 20.4212 21.2646L20.0512 23.6572ZM17.6715 7.24276C17.1964 7.23467 16.7261 7.33806 16.2983 7.54453C15.8704 7.75105 15.4969 8.0549 15.2077 8.43183V13.5597C15.9363 13.6129 16.6543 13.765 17.3418 14.0121V15.038H11.4093V13.9911C11.9051 13.7908 12.4215 13.6461 12.949 13.5597V6.9972C12.3856 6.88446 11.8575 6.63783 11.4093 6.27822V5.47851L14.6745 4.67878H15.1043L14.9427 7.30415H15.0655C15.8248 5.49951 16.7489 4.69979 18.1238 4.69979C18.4267 4.68807 18.7284 4.74323 19.0076 4.86135L18.6376 7.24112L17.6715 7.24276ZM5.74831 31.7142C5.11146 31.7182 4.48118 31.5855 3.90006 31.3249V34.2782C4.51101 34.3487 5.11107 34.4936 5.68691 34.7096V35.7549H0V34.7096C0.499612 34.4996 1.02412 34.3546 1.56067 34.2782V23.4068C1.04691 23.3034 0.348968 22.9965 0.0210011 22.6895V21.8817L3.34429 21.0884H3.75465V22.4019C4.4122 21.9916 5.78708 21.0481 7.53196 21.0481C9.60638 21.0481 11.2074 22.5021 11.2074 25.5814C11.209 29.4783 8.76625 31.7142 5.74831 31.7142ZM5.95348 22.9141C5.23499 22.935 4.53153 23.1248 3.90006 23.4682V29.3344C4.61239 29.7633 5.4307 29.9839 6.26207 29.971C8.02629 29.971 8.97145 28.9241 8.97145 26.6477C8.97145 24.2276 7.7064 22.9141 5.95348 22.9141ZM7.7597 8.98598L7.34937 6.83236C6.89697 6.5868 6.13766 6.40099 5.23454 6.40099C3.55109 6.40099 2.38139 7.53196 2.38139 9.70491C2.38139 12.2479 3.88067 13.479 6.11828 13.479C7.12712 13.459 8.1257 13.2717 9.0732 12.9248V14.3788C8.39627 14.7892 6.7128 15.261 5.15215 15.261C1.78686 15.261 0.143788 13.4144 0.143788 10.5434C0.143788 7.15876 2.54619 4.63677 5.97449 4.63677C7.26695 4.63677 8.49808 5.00513 9.2784 5.49789C9.25964 6.62015 9.14286 7.73861 8.92945 8.84059L7.7597 8.98598ZM54.1016 17.9089L55.8788 16.1318L57.656 17.9089L55.8788 19.6861L54.1016 17.9089ZM55.9628 21.0481C56.559 21.0481 56.8255 21.4374 56.8255 22.053C56.8255 22.2582 56.7835 22.5651 56.7641 22.7703L55.6752 29.4573C55.7337 29.5218 55.7877 29.5904 55.8368 29.6624H57.5202V30.4621C56.5751 30.9759 54.6865 31.6722 53.9885 31.6722C53.415 31.6722 53.1274 31.3039 53.1274 30.6884C53.1274 30.5042 53.1888 30.1552 53.2098 29.971L54.2971 23.284L54.1355 23.0788H52.4586V22.2791C53.3972 21.746 55.3069 21.0481 55.9628 21.0481ZM64.8745 21.0481C66.1667 21.0481 67.3996 21.4164 68.1802 21.9092C68.1613 23.032 68.0444 24.1509 67.8309 25.2534L66.6613 25.3957L66.2495 23.242C65.7985 22.9965 65.0394 22.8123 64.1362 22.8123C62.4527 22.8123 61.2813 23.9432 61.2813 26.1146C61.2813 28.6575 62.7806 29.8887 65.0185 29.8887C66.0278 29.8687 67.0269 29.6814 67.9749 29.3344V30.7885C67.296 31.1973 65.6128 31.669 64.0535 31.669C60.6868 31.669 59.0454 29.824 59.0454 26.9514C59.0454 23.57 61.4461 21.0481 64.8745 21.0481Z" fill="black"/>
</g>
<defs>
<clipPath id="clip0_4101_937">
<rect width="79.5789" height="36" fill="white"/>
</clipPath>
</defs>
</svg>
